HIERARCHY
ROOT Hips
{
 OFFSET 0.000000 0.000000 0.000000
 CHANNELS 6 Xposition Yposition Zposition Yrotation Xrotation Zrotation
 JOINT Chest
 {
  OFFSET 0.000000 14.374500 -0.011500
  CHANNELS 3 Yrotation Xrotation Zrotation
  JOINT Chest2
  {
   OFFSET 0.000000 9.203400 0.023400
   CHANNELS 3 Yrotation Xrotation Zrotation
   JOINT Chest3
   {
    OFFSET 0.000000 9.162700 0.000000
    CHANNELS 3 Yrotation Xrotation Zrotation
    JOINT Chest4
    {
     OFFSET 0.000000 9.153300 0.000000
     CHANNELS 3 Yrotation Xrotation Zrotation
     JOINT Neck
     {
      OFFSET 0.000000 13.353600 0.000000
      CHANNELS 3 Yrotation Xrotation Zrotation
      JOINT Head
      {
       OFFSET 0.000000 8.573800 0.049400
       CHANNELS 3 Yrotation Xrotation Zrotation
       End Site
       {
        OFFSET 0.000000 16.219200 0.026100
       }
      }
     }
     JOINT RightCollar
     {
      OFFSET -2.497100 8.876100 0.000000
      CHANNELS 3 Yrotation Xrotation Zrotation
      JOINT RightShoulder
      {
       OFFSET -12.289200 0.000000 0.000000
       CHANNELS 3 Yrotation Xrotation Zrotation
       JOINT RightElbow
       {
        OFFSET 0.000000 -28.194900 0.000000
        CHANNELS 3 Yrotation Xrotation Zrotation
        JOINT RightWrist
        {
         OFFSET 0.000000 -23.009700 0.007900
         CHANNELS 3 Yrotation Xrotation Zrotation
         End Site
         {
          OFFSET 0.000000 -17.151500 0.000000
         }
        }
       }
      }
     }
     JOINT LeftCollar
     {
      OFFSET 2.497100 8.876100 0.000000
      CHANNELS 3 Yrotation Xrotation Zrotation
      JOINT LeftShoulder
      {
       OFFSET 12.289200 0.000000 0.000000
       CHANNELS 3 Yrotation Xrotation Zrotation
       JOINT LeftElbow
       {
        OFFSET 0.000000 -28.194900 0.000000
        CHANNELS 3 Yrotation Xrotation Zrotation
        JOINT LeftWrist
        {
         OFFSET 0.000000 -23.009700 0.007900
         CHANNELS 3 Yrotation Xrotation Zrotation
         End Site
         {
          OFFSET 0.000000 -17.151500 0.000000
         }
        }
       }
      }
     }
    }
   }
  }
 }
 JOINT RightHip
 {
  OFFSET -11.777600 0.056700 0.005700
  CHANNELS 3 Yrotation Xrotation Zrotation
  JOINT RightKnee
  {
   OFFSET 0.000000 -39.966000 -0.004200
   CHANNELS 3 Yrotation Xrotation Zrotation
   JOINT RightAnkle
   {
    OFFSET 0.000000 -41.981900 0.027400
    CHANNELS 3 Yrotation Xrotation Zrotation
    JOINT RightToe
    {
     OFFSET 0.000000 -9.910600 16.950100
     CHANNELS 3 Yrotation Xrotation Zrotation
     End Site
     {
      OFFSET 0.000000 -1.461000 6.191600
     }
    }
   }
  }
 }
 JOINT LeftHip
 {
  OFFSET 11.777600 0.056700 0.005700
  CHANNELS 3 Yrotation Xrotation Zrotation
  JOINT LeftKnee
  {
   OFFSET 0.000000 -39.966000 -0.004200
   CHANNELS 3 Yrotation Xrotation Zrotation
   JOINT LeftAnkle
   {
    OFFSET 0.000000 -41.981900 0.027400
    CHANNELS 3 Yrotation Xrotation Zrotation
    JOINT LeftToe
    {
     OFFSET 0.000000 -9.910600 16.950100
     CHANNELS 3 Yrotation Xrotation Zrotation
     End Site
     {
      OFFSET 0.000000 -1.461000 6.191600
     }
    }
   }
  }
 }
}
MOTION
Frames: 9
Frame Time: 0.008333
0.000000 91.618700 0.000000 0.000000 -5.767877 0.000000 0.000000 11.653817 0.000000 0.000000 -5.885947 0.000000 0.000000 -0.000000 0.000000 0.000000 -0.000000 0.000000 0.000000 12.528835 0.000000 0.000000 0.711642 0.000000 0.000000 -0.000000 0.000000 0.000000 0.000000 -90.000000 0.000000 -2.309062 0.000000 0.000000 2.309062 0.000000 0.000000 -0.000000 0.000000 0.000000 -0.000000 90.000000 0.000000 -2.309062 0.000000 0.000000 2.309062 0.000000 0.000000 8.520406 0.000000 0.000000 1.905762 0.000000 -0.000000 -4.658285 0.000000 0.000000 -0.000000 0.000000 0.000000 8.520406 0.000000 0.000000 1.905762 0.000000 -0.000000 -4.658285 0.000000 0.000000 -0.000000 0.000000
-0.903228 152.732875 76.926631 177.116850 -45.503455 -3.194451 3.810752 28.638431 3.250390 0.530291 5.262614 0.512046 0.854479 8.300831 0.826765 2.780128 22.975615 2.710929 -1.152914 8.417654 -2.186887 -0.742891 -16.817835 -2.135215 0.917835 -6.322511 -1.099237 6.636402 -10.364075 -11.455374 56.606528 -73.952398 -33.989058 36.624753 30.796996 -1.212989 -11.347062 -10.583301 -0.132964 -5.903046 -10.820552 9.050305 -44.646573 -65.491369 18.999089 -17.976235 7.022030 15.094649 7.237292 -31.688240 1.484626 -77.588629 83.796162 -81.735737 1.502136 -26.005146 9.523049 0.124709 -0.311476 0.074113 -1.652382 -28.446569 -4.450023 145.853801 70.968272 156.911556 -0.907163 -3.827585 -9.033201 0.186854 -6.945288 -0.727704
-2.052105 145.666085 78.626561 177.250284 -45.460377 -3.417378 3.783348 28.537944 3.396939 0.527112 5.298309 0.509450 0.854707 8.279637 0.827471 2.783097 22.944502 2.713544 -1.198038 8.526662 -2.259901 -0.744427 -16.799238 -2.095743 0.910359 -6.386473 -1.099242 6.628276 -10.257252 -11.420281 56.531331 -73.876244 -33.912274 36.610690 30.756192 -1.244036 -11.339832 -10.588775 -0.094709 -5.912343 -10.787919 8.949518 -44.618299 -65.337297 18.994348 -17.867071 6.947213 15.256283 7.064480 -31.760269 1.628175 -77.832421 83.801573 -81.982494 1.542593 -26.116459 9.545325 0.069881 -0.210891 0.040850 -1.814788 -28.461060 -4.301468 145.817808 71.002262 156.876432 -0.841009 -3.767307 -8.991657 0.080866 0.079595 0.047272
-3.000013 139.847074 80.025691 177.354996 -45.428649 -3.590098 3.763441 28.475885 3.510815 0.523213 5.306839 0.508798 0.853831 8.285595 0.826575 2.788938 22.884798 2.717667 -1.218947 8.613894 -2.301151 -0.765593 -16.700207 -2.127702 0.902469 -6.412011 -1.102183 6.610821 -10.231601 -11.357945 56.412071 -73.754274 -33.769130 36.595108 30.727061 -1.279160 -11.336250 -10.578859 -0.066606 -5.917888 -10.813604 8.843223 -44.501155 -65.140828 18.875720 -17.767960 6.822607 15.368445 6.934048 -31.812091 1.736690 -78.021551 83.806441 -82.169780 1.564842 -26.212473 9.559402 0.031942 -0.125303 0.018670 -1.935564 -28.467790 -4.188704 145.788764 71.026718 156.852230 -0.796500 -3.722975 -8.962715 0.034938 0.050773 0.020428
-3.687708 135.645995 81.034331 177.441036 -45.414118 -3.709456 3.737045 28.432137 3.580745 0.522660 5.296447 0.508304 0.857608 8.226377 0.830703 2.787193 22.907647 2.724949 -1.236587 8.698528 -2.335575 -0.780336 -16.526968 -2.236492 0.900424 -6.417965 -1.101706 6.587848 -10.227489 -11.300634 56.287080 -73.628890 -33.616955 36.570272 30.695247 -1.302899 -11.338963 -10.558791 -0.037375 -5.902677 -10.810424 8.766003 -44.298430 -65.002214 18.657498 -17.621205 6.615417 15.507147 6.846530 -31.834841 1.793603 -78.192521 83.815269 -82.330126 1.569438 -26.289086 9.567578 0.009018 -0.062618 0.005272 -2.027201 -28.463727 -4.120102 145.763984 71.046851 156.826962 -0.774994 -3.685643 -8.945597 0.011341 0.026915 0.006631
-4.122478 132.993179 81.670885 177.488913 -45.407988 -3.777842 3.724029 28.395060 3.624799 0.527777 5.244326 0.513111 0.852707 8.235383 0.830260 2.788815 22.901249 2.732350 -1.251966 8.781221 -2.352908 -0.772485 -16.404722 -2.334051 0.902150 -6.423225 -1.100879 6.569939 -10.174279 -11.277032 56.227662 -73.573736 -33.547282 36.557100 30.680755 -1.318177 -11.349830 -10.527380 -0.010355 -5.868932 -10.811124 8.691072 -43.947417 -64.896819 18.294887 -17.399786 6.267039 15.681487 6.798634 -31.846947 1.833392 -78.335319 83.830768 -82.468916 1.540991 -26.338639 9.574987 0.000216 -0.024525 0.000126 -2.079158 -28.457381 -4.080190 145.746964 71.061091 156.807088 -0.757704 -3.655757 -8.930959 0.002390 0.010489 0.001397
-4.364040 131.534179 82.020731 177.498732 -45.406290 -3.792635 3.722470 28.362578 3.639901 0.527282 5.231578 0.513790 0.852070 8.216732 0.831347 2.790908 22.880007 2.738739 -1.263813 8.869995 -2.400463 -0.762146 -16.312479 -2.383396 0.907062 -6.430269 -1.100622 6.551467 -10.116599 -11.254421 56.159350 -73.520397 -33.470815 36.543420 30.664276 -1.338858 -11.368254 -10.495060 0.013896 -5.834108 -10.787218 8.630284 -43.375573 -64.865514 17.760651 -17.067082 5.710711 15.929595 6.790807 -31.851046 1.843105 -78.396900 83.833775 -82.528824 1.530011 -26.347255 9.570402 -0.002305 -0.014510 -0.001348 -2.092145 -28.451632 -4.071168 145.739595 71.068761 156.794965 -0.748614 -3.646035 -8.922875 -0.001216 0.006794 -0.000711
-4.478394 130.839095 82.187938 177.504445 -45.403714 -3.801030 3.720393 28.337362 3.649059 0.525611 5.209261 0.515359 0.850564 8.197472 0.831567 2.790387 22.858370 2.742506 -1.253585 8.961529 -2.487693 -0.767209 -16.224574 -2.391812 0.914377 -6.438854 -1.099116 6.537024 -10.139816 -11.188821 55.951789 -73.364685 -33.232221 36.512977 30.632965 -1.368323 -11.389973 -10.468084 0.035399 -5.788789 -10.751651 8.574597 -42.507045 -64.902946 16.979485 -16.589172 4.882271 16.334684 6.788510 -31.854002 1.847209 -78.433458 83.835402 -82.563437 1.531249 -26.349390 9.566696 -0.002119 -0.009270 -0.001239 -2.099002 -28.451839 -4.065194 145.745998 71.072022 156.800784 -0.743411 -3.639814 -8.917806 -0.003093 0.005111 -0.001808
-4.524443 130.554274 82.257213 177.503947 -45.400687 -3.802315 3.720877 28.326603 3.651829 0.521011 5.168274 0.519137 0.848439 8.177902 0.830769 2.787707 22.836592 2.743160 -1.242435 9.046375 -2.535432 -0.743567 -16.134492 -2.444182 0.922497 -6.446508 -1.095339 6.534276 -10.135172 -11.136639 55.749655 -73.233862 -33.014487 36.491550 30.599432 -1.397300 -11.411465 -10.443001 0.055158 -5.703068 -10.711463 8.511374 -41.327951 -65.004744 15.913758 -15.977737 3.780140 16.950843 6.798327 -31.856725 1.845349 -78.452203 83.837326 -82.577849 1.535091 -26.348264 9.564778 -0.003111 -0.006572 -0.001819 -2.106466 -28.453217 -4.055374 145.761908 71.076991 156.812586 -0.744728 -3.634947 -8.913821 -0.002992 0.006114 -0.001749
